#!OML:ASF F:\VICON\USERDATA\INSTALL\rory3\rory3.ASF
:FULLY-SPECIFIED
:DEGREES
966
root -8.048 19.9315 1.31206 -18.9751 -82.1206 16.9755
lowerback 5.64173 3.08896 -2.33073
upperback -2.38097 3.89693 -0.678774
thorax -5.74788 1.99323 0.184976
lowerneck -11.9089 3.80966 -5.49185
upperneck 2.47054 5.60572 4.07437
head 2.62028 2.86829 2.64112
rclavicle -1.49089e-016 -7.30534e-015
rhumerus 101.299 -22.9641 -66.7102
rradius 16.451
rwrist 7.44831
rhand -40.831 -12.8427
rfingers 7.12502
rthumb -13.7688 -42.3671
lclavicle -1.49089e-016 -7.30534e-015
lhumerus 90.5929 26.1796 38.5847
lradius 27.2809
lwrist 0.73468
lhand -15.521 25.4957
lfingers 7.12502
lthumb 10.6623 55.2052
rfemur -9.03931 22.9838 17.4833
rtibia 36.2275
rfoot 7.62632 -6.32947
rtoes -9.09087
lfemur -6.943 -8.66207 -21.911
ltibia 28.083
lfoot 13.9121 6.71438
ltoes -11.1301
967
root -8.05244 19.919 1.2875 -19.8747 -81.9661 17.8408
lowerback 5.58831 3.00886 -2.37684
upperback -2.29168 3.78429 -0.76579
thorax -5.61779 1.93649 0.139337
lowerneck -11.8751 3.82584 -5.27216
upperneck 2.68045 5.61076 3.77806
head 2.69705 2.86027 2.50677
rclavicle -2.60346e-014 -3.37934e-015
rhumerus 101.529 -22.7307 -66.9133
rradius 16.3787
rwrist 7.79159
rhand -40.9537 -12.9806
rfingers 7.12502
rthumb -13.887 -42.4969
lclavicle -2.60346e-014 -3.37934e-015
lhumerus 90.682 26.0836 39.1028
lradius 27.1578
lwrist 0.968117
lhand -16.4392 24.9583
lfingers 7.12502
lthumb 9.77645 54.7114
rfemur -9.0763 22.9163 17.6077
rtibia 36.4056
rfoot 7.35185 -7.34458
rtoes -8.30378
lfemur -7.0375 -8.32152 -22.0205
ltibia 28.3041
lfoot 14.0353 6.51491
ltoes -11.4448
968
root -8.05416 19.9057 1.26437 -21.5856 -81.7781 19.4901
lowerback 5.60199 2.91221 -2.53009
upperback -2.20276 3.63685 -0.888938
thorax -5.53052 1.86535 0.11542
lowerneck -11.8987 3.84502 -4.79028
upperneck 2.94619 5.60075 3.20739
head 2.81744 2.83647 2.23703
rclavicle -9.38015e-015 -5.96354e-015
rhumerus 101.645 -22.5008 -66.9283
rradius 16.3694
rwrist 7.83732
rhand -41.2229 -13.6779
rfingers 7.12502
rthumb -14.1464 -43.1762
lclavicle -9.38015e-015 -5.96354e-015
lhumerus 90.92 25.9313 39.9391
lradius 27.0007
lwrist 0.983055
lhand -16.7903 24.6726
lfingers 7.12502
lthumb 9.43772 54.4413
rfemur -9.0385 22.3325 17.5304
rtibia 36.6476
rfoot 7.10576 -7.51893
rtoes -7.37432
lfemur -7.1058 -7.92135 -22.2775
ltibia 28.4731
lfoot 14.3089 5.88292
ltoes -13.0664
969
root -8.053 19.896 1.23809 -22.8459 -81.502 20.5869
lowerback 5.77189 2.80862 -2.67325
upperback -2.1185 3.4757 -1.00697
thorax -5.53642 1.78727 0.0839882
lowerneck -11.7821 3.86832 -4.57067
upperneck 3.12893 5.61346 2.9259
head 2.86942 2.83266 2.10553
rclavicle 8.80865e-015 -2.38542e-015
rhumerus 101.318 -22.5291 -66.2227
rradius 16.5624
rwrist 7.25912
rhand -41.5863 -14.7236
rfingers 7.12502
rthumb -14.4966 -44.1971
lclavicle 8.80865e-015 -2.38542e-015
lhumerus 91.1946 25.6862 40.7699
lradius 26.7847
lwrist 0.949423
lhand -17.1838 24.326
lfingers 7.12502
lthumb 9.05803 54.1115
rfemur -8.86122 21.7901 17.5151
rtibia 36.9346
rfoot 6.91073 -7.24548
rtoes -8.30164
lfemur -7.03258 -7.87677 -22.5086
ltibia 28.574
lfoot 14.5715 5.36157
ltoes -14.1618
970
root -8.05412 19.8916 1.21253 -24.3344 -81.2174 21.9054
lowerback 5.91196 2.73256 -2.83693
upperback -2.01862 3.34826 -1.15988
thorax -5.50886 1.72537 0.0267279
lowerneck -11.5615 3.87632 -4.45373
upperneck 3.24673 5.61085 2.75426
head 2.87514 2.82486 2.02271
rclavicle -2.61712e-014 1.2424e-014
rhumerus 100.864 -22.6325 -65.4376
rradius 16.7797
rwrist 7.02004
rhand -41.8059 -15.3446
rfingers 7.12502
rthumb -14.7081 -44.8029
lclavicle -2.61712e-014 1.2424e-014
lhumerus 91.3914 25.4217 41.3861
lradius 26.546
lwrist 0.964955
lhand -17.9035 23.9433
lfingers 7.12502
lthumb 8.36348 53.7577
rfemur -8.66642 21.4154 17.4139
rtibia 37.2021
rfoot 6.83813 -6.89427
rtoes -10.0214
lfemur -6.90622 -8.10321 -22.8092
ltibia 28.6372
lfoot 14.7352 5.36964
ltoes -13.4203
971
root -8.05763 19.8868 1.18772 -25.8344 -80.9558 23.2522
lowerback 5.97381 2.6454 -3.00873
upperback -1.89837 3.21118 -1.27109
thorax -5.41804 1.6593 0.0232022
lowerneck -11.2553 3.89316 -4.52641
upperneck 3.31677 5.63719 2.69115
head 2.83975 2.83351 2.00673
rclavicle -1.96983e-014 5.86415e-015
rhumerus 100.821 -22.3392 -65.4355
rradius 16.7662
rwrist 7.98209
rhand -42.1467 -14.7148
rfingers 7.12502
rthumb -15.0365 -44.1488
lclavicle -1.96983e-014 5.86415e-015
lhumerus 91.4897 25.208 41.9906
lradius 26.3784
lwrist 0.902894
lhand -18.5383 23.899
lfingers 7.12502
lthumb 7.75075 53.7369
rfemur -8.45088 21.1871 17.294
rtibia 37.3868
rfoot 6.56167 -6.85854
rtoes -10.2326
lfemur -6.81431 -8.12553 -23.0847
ltibia 28.7065
lfoot 14.9597 5.34206
ltoes -12.435
972
root -8.06392 19.8825 1.16349 -27.0734 -80.7013 24.3254
lowerback 5.97935 2.55884 -3.12592
upperback -1.76348 3.08246 -1.38018
thorax -5.27689 1.59504 -0.0061166
lowerneck -10.9498 3.92889 -4.68738
upperneck 3.37996 5.69234 2.75559
head 2.79568 2.86044 2.04994
rclavicle 4.2279e-014 -1.98785e-015
rhumerus 100.784 -22.1082 -65.3379
rradius 16.7137
rwrist 8.77658
rhand -42.5238 -13.8995
rfingers 7.12502
rthumb -15.3997 -43.306
lclavicle 4.2279e-014 -1.98785e-015
lhumerus 91.3655 25.0588 42.2612
lradius 26.3637
lwrist 0.990042
lhand -19.3189 23.8934
lfingers 7.12502
lthumb 6.99727 53.7578
rfemur -8.15743 20.9516 17.2711
rtibia 37.4384
rfoot 6.36031 -6.9556
rtoes -10.3039
lfemur -6.74437 -7.97126 -23.275
ltibia 28.8136
lfoot 15.3347 5.06579
ltoes -12.5795
